<svg width="147" height="56" fill="none" xmlns="http://www.w3.org/2000/svg">
  <g clip-path="url(#a)">
    <path d="M28.165 56c15.464 0 28-12.536 28-28s-12.536-28-28-28-28 12.536-28 28 12.536 28 28 28Z" fill="#0098EA"/>
    <path d="M37.726 15.628H18.604c-3.516 0-5.744 3.792-3.975 6.858l11.8 20.455c.77 1.335 2.7 1.335 3.47 0l11.804-20.455c1.767-3.06-.462-6.858-3.975-6.858h-.002ZM26.42 36.807l-2.57-4.974L17.65 20.74c-.41-.71.096-1.62.953-1.62h7.816V36.81l.002-.002Zm12.256-16.068-6.199 11.096-2.57 4.972V19.119h7.816c.857 0 1.362.91.953 1.62Z" fill="#fff"/>
    <path d="M73.816 43.468h6.271V21.596h8.672v-5.958H65.144v5.958h8.672v21.872ZM103.831 43.938c7.917 0 14.385-6.468 14.385-14.385 0-7.918-6.468-14.385-14.385-14.385-7.957 0-14.385 6.467-14.385 14.385s6.428 14.385 14.385 14.385Zm0-6.036c-4.547 0-8.114-3.842-8.114-8.35 0-4.507 3.567-8.348 8.114-8.348 4.507 0 8.074 3.841 8.074 8.349 0 4.507-3.567 8.349-8.074 8.349ZM146.835 43.468v-27.83h-6.272v17.168l-13.522-17.168h-5.37v27.83h6.232V26.26l13.562 17.207h5.37Z" fill="#000"/>
  </g>
  <defs>
    <clipPath id="a">
      <path fill="#fff" d="M0 0h147v56H0z"/>
    </clipPath>
  </defs>
</svg>
